<svg width="539" height="113" xmlns="http://www.w3.org/2000/svg" xml:space="preserve" version="1.1">

 <g>
  <title>Layer 1</title>
  <path id="svg_1" fill="#0F265C" d="m329.3,65.4l-9.9,0l0,47.1l10,0l-0.1,-47.1l0,0zm-51.9,0l-10,0l0,47.1l10,0l0,-19.4l19.8,0l0,19.5l10,0l0,-47.2l-4.9,0c-2.8,0 -5.1,2.3 -5.1,5.1l0,13.4l-19.8,0l0,-18.5zm-72.5,0l-10,0l0,47.1l10,0l0,-47.1zm-38.5,9.3c6.9,0 10.2,2 10.2,6.8c0,4.6 -3.4,7 -10.2,7l-7.4,0l0,-13.8l7.4,0zm1.7,-9.3l-19.1,0l0,47.1l10,0l0,-14.8l9.1,0c5.4,0 9.9,-1.5 13.3,-4.5c3.4,-3 5.1,-7 5.1,-11.9c0,-4.8 -1.7,-8.7 -5,-11.5c-3.4,-2.9 -7.8,-4.4 -13.4,-4.4m9.4,-32.2c0,4 -2.9,5.4 -8.5,5.4l-10,0l0,-10.6l10.3,0c5.4,0 8.2,1.7 8.2,5.2m-1.1,-18.5c0,3.2 -2.6,4.8 -7.8,4.8l-9.6,0l0,-9.6l9.1,0c5.9,0 8.3,1.3 8.3,4.8m5.2,8.6c3.2,-2.5 4.8,-5.7 4.8,-9.5c0,-8.4 -6.4,-13 -16.3,-13l-21.1,0l0,47.1l22.3,0c4.9,0 8.8,-1.3 11.8,-3.8c3,-2.6 4.5,-5.9 4.5,-10c0,-4.4 -2,-8 -6,-10.8m39,6.4l-11.7,0l5.8,-15.4l5.9,15.4zm7,18.1l10.4,0l-17.2,-43.9c-0.8,-1.9 -2.7,-3.2 -4.8,-3.2l-6,0l-18.4,47.1l10.4,0l3.7,-9.3l18.2,0l3.7,9.3zm11.1,16.9c-7.1,0 -12.9,2.2 -17.6,6.7c-4.7,4.4 -7.1,10.4 -7.1,17.7c0,7.3 2.4,13.1 7.1,17.6c4.8,4.4 10.8,6.7 18,6.7c7.9,0 14.3,-3 19.2,-8.9l-6.7,-7.1c-3.2,4.4 -7.5,6.6 -12.8,6.6c-4.1,0 -7.5,-1.3 -10.3,-4s-4.2,-6.4 -4.2,-11s1.4,-8.2 4.2,-10.8c2.8,-2.7 6.1,-4 9.8,-4c3.6,0 6.9,1.2 9.5,3.2c2,1.6 4.9,1.3 6.7,-0.5l3.1,-3.1c-4.9,-6.1 -11.2,-9.1 -18.9,-9.1m38.5,-16.9l9.1,0l0,-47.1l-9.9,0l0,31.9l-17.6,-29.4c-0.9,-1.5 -2.6,-2.5 -4.4,-2.5l-9.1,0l0,47.1l10,0l0,-31.8l17.5,29.3c1,1.6 2.6,2.5 4.4,2.5m32.6,-12.6c-2.8,-2.7 -4.2,-6.4 -4.2,-11s1.4,-8.2 4.2,-10.8c2.8,-2.7 6.1,-4 9.7,-4s6.9,1.2 9.6,3.2c2,1.6 4.8,1.2 6.6,-0.6l3.1,-3.1c-4.8,-5.9 -11,-8.9 -18.8,-8.9c-7.1,0 -12.9,2.2 -17.6,6.7c-4.7,4.4 -7.1,10.4 -7.1,17.7s2.4,13.1 7.1,17.5c4.8,4.4 10.8,6.7 17.9,6.7c7.9,0 14.3,-3 19.2,-8.9l-6.7,-7.1c-3.2,4.4 -7.5,6.6 -12.8,6.6c-4,0 -7.4,-1.3 -10.2,-4m41,30.2l-9.1,0l0,47.1l10,0l0,-31.7l17.6,29.3c0.9,1.5 2.6,2.5 4.4,2.5l9.1,0l0,-47.2l-10,0l0,31.9l-17.6,-29.5c-1,-1.4 -2.6,-2.4 -4.4,-2.4m32.2,-41.2c0,4.2 -1.3,7.7 -3.8,10.6c-2.5,2.9 -5.9,4.3 -10.2,4.3c-4.4,0 -7.8,-1.4 -10.4,-4.3s-3.8,-6.4 -3.8,-10.6s1.3,-7.7 3.8,-10.6c2.6,-2.9 6,-4.3 10.4,-4.3c4.1,0 7.4,1.5 10,4.4s4,6.4 4,10.5m3.1,17.5c4.7,-4.6 7.1,-10.4 7.1,-17.5c0,-7 -2.4,-12.8 -7.1,-17.3c-4.7,-4.6 -10.5,-6.9 -17.3,-6.9s-12.6,2.3 -17.2,6.9s-7,10.4 -7,17.3c0,7.1 2.4,12.8 7,17.5c4.6,4.6 10.4,6.9 17.2,6.9c6.8,0 12.5,-2.3 17.3,-6.9m20.1,58.2c-2.8,-2.7 -4.2,-6.4 -4.2,-11s1.4,-8.2 4.2,-10.8c2.8,-2.7 6.1,-4 9.8,-4c3.6,0 6.9,1.2 9.6,3.2c2,1.6 4.8,1.2 6.6,-0.6l3.1,-3.1c-4.8,-5.9 -11,-8.9 -18.8,-8.9c-7.1,0 -12.9,2.2 -17.6,6.7c-4.7,4.4 -7.1,10.4 -7.1,17.7s2.4,13.1 7.1,17.6c4.8,4.4 10.8,6.7 18,6.7c7.9,0 14.3,-3 19.2,-8.9l-6.7,-7.1c-3.2,4.4 -7.5,6.6 -12.8,6.6c-4.2,0 -7.6,-1.4 -10.4,-4.1m68.7,12.7l10,0l0,-47.2l-4.9,0c-2.8,0 -5.1,2.3 -5.1,5.1l0,13.4l-19.8,0l0,-18.5l-10,0l0,47.1l10,0l0,-19.4l19.8,0l0,19.5zm47,-18.2l-11.7,0l5.9,-15.4l5.8,15.4zm17.4,18.2l-17.2,-43.9c-0.8,-1.9 -2.6,-3.2 -4.7,-3.2l-6.1,0l-18.4,47.1l10.4,0l3.7,-9.3l18.2,0l3.8,9.3l10.3,0z" class="st0"/>
  <path id="svg_2" fill="#FFDD00" d="m70.4,0.7l-70.4,0l0,74.4c0,20.7 16.8,37.5 37.5,37.5l74.4,0l0,-111.9l-41.5,0z" class="st1"/>
  <polygon id="svg_3" fill="#0F265C" points="93.30000305175781,56.60000151395798 76.4000015258789,56.60000151395798 76.4000015258789,36.19999998807907 55.900001525878906,36.19999998807907 55.900001525878906,19.300000369548798 93.30000305175781,19.300000369548798 " class="st0"/>
 </g>
</svg>